<mxfile host="app.diagrams.net" agent="Mozilla/5.0 (Windows NT 10.0; Win64; x64) AppleWebKit/537.36 (KHTML, like Gecko) Chrome/140.0.0.0 Safari/537.36 Edg/140.0.0.0" version="28.2.5">
  <diagram name="Page-1" id="3matBruSAcgj6_KvUqIw">
    <mxGraphModel dx="3397" dy="1154" grid="1" gridSize="10" guides="1" tooltips="1" connect="1" arrows="1" fold="1" page="1" pageScale="1" pageWidth="1100" pageHeight="850" math="0" shadow="0">
      <root>
        <mxCell id="0" />
        <mxCell id="1" parent="0" />
        <mxCell id="Lt6OHq9H0NEp2cN9ZZlA-36" style="edgeStyle=orthogonalEdgeStyle;rounded=0;orthogonalLoop=1;jettySize=auto;html=1;exitX=0;exitY=0.5;exitDx=0;exitDy=0;entryX=0.5;entryY=0;entryDx=0;entryDy=0;" edge="1" parent="1" source="Lt6OHq9H0NEp2cN9ZZlA-1" target="Lt6OHq9H0NEp2cN9ZZlA-2">
          <mxGeometry relative="1" as="geometry" />
        </mxCell>
        <mxCell id="Lt6OHq9H0NEp2cN9ZZlA-1" value="APIM (Dev Tier)" style="rounded=0;whiteSpace=wrap;html=1;container=0;" vertex="1" parent="1">
          <mxGeometry x="-455" y="190" width="110" height="30" as="geometry" />
        </mxCell>
        <mxCell id="Lt6OHq9H0NEp2cN9ZZlA-37" style="edgeStyle=orthogonalEdgeStyle;rounded=0;orthogonalLoop=1;jettySize=auto;html=1;exitX=0;exitY=0.5;exitDx=0;exitDy=0;entryX=0.5;entryY=0;entryDx=0;entryDy=0;" edge="1" parent="1" source="Lt6OHq9H0NEp2cN9ZZlA-2" target="Lt6OHq9H0NEp2cN9ZZlA-3">
          <mxGeometry relative="1" as="geometry" />
        </mxCell>
        <mxCell id="Lt6OHq9H0NEp2cN9ZZlA-38" style="edgeStyle=orthogonalEdgeStyle;rounded=0;orthogonalLoop=1;jettySize=auto;html=1;exitX=1;exitY=0.5;exitDx=0;exitDy=0;entryX=0.5;entryY=0;entryDx=0;entryDy=0;" edge="1" parent="1" source="Lt6OHq9H0NEp2cN9ZZlA-2" target="Lt6OHq9H0NEp2cN9ZZlA-4">
          <mxGeometry relative="1" as="geometry" />
        </mxCell>
        <mxCell id="Lt6OHq9H0NEp2cN9ZZlA-2" value="CAD (BU)" style="rounded=0;whiteSpace=wrap;html=1;container=0;" vertex="1" parent="1">
          <mxGeometry x="-614.5" y="260" width="80" height="30" as="geometry" />
        </mxCell>
        <mxCell id="Lt6OHq9H0NEp2cN9ZZlA-39" style="edgeStyle=orthogonalEdgeStyle;rounded=0;orthogonalLoop=1;jettySize=auto;html=1;exitX=0;exitY=0.5;exitDx=0;exitDy=0;entryX=0.5;entryY=0;entryDx=0;entryDy=0;" edge="1" parent="1" source="Lt6OHq9H0NEp2cN9ZZlA-3" target="Lt6OHq9H0NEp2cN9ZZlA-5">
          <mxGeometry relative="1" as="geometry" />
        </mxCell>
        <mxCell id="Lt6OHq9H0NEp2cN9ZZlA-40" style="edgeStyle=orthogonalEdgeStyle;rounded=0;orthogonalLoop=1;jettySize=auto;html=1;exitX=1;exitY=0.5;exitDx=0;exitDy=0;entryX=0.5;entryY=0;entryDx=0;entryDy=0;" edge="1" parent="1" source="Lt6OHq9H0NEp2cN9ZZlA-3" target="Lt6OHq9H0NEp2cN9ZZlA-6">
          <mxGeometry relative="1" as="geometry" />
        </mxCell>
        <mxCell id="Lt6OHq9H0NEp2cN9ZZlA-3" value="Env (Dev)" style="rounded=0;whiteSpace=wrap;html=1;container=0;" vertex="1" parent="1">
          <mxGeometry x="-771" y="315" width="80" height="30" as="geometry" />
        </mxCell>
        <mxCell id="Lt6OHq9H0NEp2cN9ZZlA-41" style="edgeStyle=orthogonalEdgeStyle;rounded=0;orthogonalLoop=1;jettySize=auto;html=1;exitX=0;exitY=0.5;exitDx=0;exitDy=0;entryX=0.5;entryY=0;entryDx=0;entryDy=0;" edge="1" parent="1" source="Lt6OHq9H0NEp2cN9ZZlA-4" target="Lt6OHq9H0NEp2cN9ZZlA-7">
          <mxGeometry relative="1" as="geometry" />
        </mxCell>
        <mxCell id="Lt6OHq9H0NEp2cN9ZZlA-42" style="edgeStyle=orthogonalEdgeStyle;rounded=0;orthogonalLoop=1;jettySize=auto;html=1;exitX=1;exitY=0.5;exitDx=0;exitDy=0;entryX=0.5;entryY=0;entryDx=0;entryDy=0;" edge="1" parent="1" source="Lt6OHq9H0NEp2cN9ZZlA-4" target="Lt6OHq9H0NEp2cN9ZZlA-11">
          <mxGeometry relative="1" as="geometry" />
        </mxCell>
        <mxCell id="Lt6OHq9H0NEp2cN9ZZlA-4" value="Env (Trial)" style="rounded=0;whiteSpace=wrap;html=1;container=0;" vertex="1" parent="1">
          <mxGeometry x="-466" y="315" width="80" height="30" as="geometry" />
        </mxCell>
        <mxCell id="Lt6OHq9H0NEp2cN9ZZlA-43" style="edgeStyle=orthogonalEdgeStyle;rounded=0;orthogonalLoop=1;jettySize=auto;html=1;exitX=0;exitY=0.5;exitDx=0;exitDy=0;entryX=0.5;entryY=0;entryDx=0;entryDy=0;" edge="1" parent="1" source="Lt6OHq9H0NEp2cN9ZZlA-5" target="Lt6OHq9H0NEp2cN9ZZlA-15">
          <mxGeometry relative="1" as="geometry" />
        </mxCell>
        <mxCell id="Lt6OHq9H0NEp2cN9ZZlA-45" style="edgeStyle=orthogonalEdgeStyle;rounded=0;orthogonalLoop=1;jettySize=auto;html=1;exitX=0.5;exitY=1;exitDx=0;exitDy=0;entryX=0.5;entryY=0;entryDx=0;entryDy=0;" edge="1" parent="1" source="Lt6OHq9H0NEp2cN9ZZlA-5" target="Lt6OHq9H0NEp2cN9ZZlA-17">
          <mxGeometry relative="1" as="geometry" />
        </mxCell>
        <mxCell id="Lt6OHq9H0NEp2cN9ZZlA-5" value="Product (CAD/Dev)" style="rounded=0;whiteSpace=wrap;html=1;container=0;" vertex="1" parent="1">
          <mxGeometry x="-866" y="425" width="130" height="30" as="geometry" />
        </mxCell>
        <mxCell id="Lt6OHq9H0NEp2cN9ZZlA-46" style="edgeStyle=orthogonalEdgeStyle;rounded=0;orthogonalLoop=1;jettySize=auto;html=1;exitX=0.5;exitY=1;exitDx=0;exitDy=0;entryX=0.5;entryY=0;entryDx=0;entryDy=0;" edge="1" parent="1" source="Lt6OHq9H0NEp2cN9ZZlA-6" target="Lt6OHq9H0NEp2cN9ZZlA-18">
          <mxGeometry relative="1" as="geometry">
            <Array as="points">
              <mxPoint x="-651" y="540" />
              <mxPoint x="-868" y="540" />
            </Array>
          </mxGeometry>
        </mxCell>
        <mxCell id="Lt6OHq9H0NEp2cN9ZZlA-48" style="edgeStyle=orthogonalEdgeStyle;rounded=0;orthogonalLoop=1;jettySize=auto;html=1;exitX=0.5;exitY=1;exitDx=0;exitDy=0;" edge="1" parent="1" source="Lt6OHq9H0NEp2cN9ZZlA-6" target="Lt6OHq9H0NEp2cN9ZZlA-19">
          <mxGeometry relative="1" as="geometry">
            <Array as="points">
              <mxPoint x="-651" y="540" />
              <mxPoint x="-791" y="540" />
            </Array>
          </mxGeometry>
        </mxCell>
        <mxCell id="Lt6OHq9H0NEp2cN9ZZlA-49" style="edgeStyle=orthogonalEdgeStyle;rounded=0;orthogonalLoop=1;jettySize=auto;html=1;exitX=0.5;exitY=1;exitDx=0;exitDy=0;entryX=0.5;entryY=0;entryDx=0;entryDy=0;" edge="1" parent="1" source="Lt6OHq9H0NEp2cN9ZZlA-6" target="Lt6OHq9H0NEp2cN9ZZlA-20">
          <mxGeometry relative="1" as="geometry">
            <Array as="points">
              <mxPoint x="-651" y="540" />
              <mxPoint x="-731" y="540" />
            </Array>
          </mxGeometry>
        </mxCell>
        <mxCell id="Lt6OHq9H0NEp2cN9ZZlA-6" value="Product (CAD/Mock)" style="rounded=0;whiteSpace=wrap;html=1;container=0;" vertex="1" parent="1">
          <mxGeometry x="-716" y="425" width="130" height="30" as="geometry" />
        </mxCell>
        <mxCell id="Lt6OHq9H0NEp2cN9ZZlA-91" style="edgeStyle=orthogonalEdgeStyle;rounded=0;orthogonalLoop=1;jettySize=auto;html=1;exitX=0.5;exitY=1;exitDx=0;exitDy=0;entryX=0.5;entryY=0;entryDx=0;entryDy=0;" edge="1" parent="1" source="Lt6OHq9H0NEp2cN9ZZlA-7" target="Lt6OHq9H0NEp2cN9ZZlA-31">
          <mxGeometry relative="1" as="geometry">
            <Array as="points">
              <mxPoint x="-501" y="565" />
            </Array>
          </mxGeometry>
        </mxCell>
        <mxCell id="Lt6OHq9H0NEp2cN9ZZlA-92" style="edgeStyle=orthogonalEdgeStyle;rounded=0;orthogonalLoop=1;jettySize=auto;html=1;exitX=0.5;exitY=1;exitDx=0;exitDy=0;entryX=0.5;entryY=0;entryDx=0;entryDy=0;" edge="1" parent="1" source="Lt6OHq9H0NEp2cN9ZZlA-7" target="Lt6OHq9H0NEp2cN9ZZlA-30">
          <mxGeometry relative="1" as="geometry">
            <Array as="points">
              <mxPoint x="-501" y="540" />
              <mxPoint x="-574" y="540" />
            </Array>
          </mxGeometry>
        </mxCell>
        <mxCell id="Lt6OHq9H0NEp2cN9ZZlA-93" style="edgeStyle=orthogonalEdgeStyle;rounded=0;orthogonalLoop=1;jettySize=auto;html=1;exitX=0.5;exitY=1;exitDx=0;exitDy=0;entryX=0.5;entryY=0;entryDx=0;entryDy=0;" edge="1" parent="1" source="Lt6OHq9H0NEp2cN9ZZlA-7" target="Lt6OHq9H0NEp2cN9ZZlA-32">
          <mxGeometry relative="1" as="geometry">
            <Array as="points">
              <mxPoint x="-501" y="540" />
              <mxPoint x="-432" y="540" />
            </Array>
          </mxGeometry>
        </mxCell>
        <mxCell id="Lt6OHq9H0NEp2cN9ZZlA-7" value="Product (CAD/Trial)" style="rounded=0;whiteSpace=wrap;html=1;container=0;" vertex="1" parent="1">
          <mxGeometry x="-566" y="425" width="130" height="30" as="geometry" />
        </mxCell>
        <mxCell id="Lt6OHq9H0NEp2cN9ZZlA-94" style="edgeStyle=orthogonalEdgeStyle;rounded=0;orthogonalLoop=1;jettySize=auto;html=1;exitX=0.5;exitY=1;exitDx=0;exitDy=0;entryX=0.5;entryY=0;entryDx=0;entryDy=0;" edge="1" parent="1" source="Lt6OHq9H0NEp2cN9ZZlA-11" target="Lt6OHq9H0NEp2cN9ZZlA-33">
          <mxGeometry relative="1" as="geometry" />
        </mxCell>
        <mxCell id="Lt6OHq9H0NEp2cN9ZZlA-95" style="edgeStyle=orthogonalEdgeStyle;rounded=0;orthogonalLoop=1;jettySize=auto;html=1;exitX=0.5;exitY=1;exitDx=0;exitDy=0;entryX=0.5;entryY=0;entryDx=0;entryDy=0;" edge="1" parent="1" source="Lt6OHq9H0NEp2cN9ZZlA-11" target="Lt6OHq9H0NEp2cN9ZZlA-34">
          <mxGeometry relative="1" as="geometry" />
        </mxCell>
        <mxCell id="Lt6OHq9H0NEp2cN9ZZlA-96" style="edgeStyle=orthogonalEdgeStyle;rounded=0;orthogonalLoop=1;jettySize=auto;html=1;entryX=0.5;entryY=0;entryDx=0;entryDy=0;" edge="1" parent="1" target="Lt6OHq9H0NEp2cN9ZZlA-35">
          <mxGeometry relative="1" as="geometry">
            <mxPoint x="-351" y="455" as="sourcePoint" />
            <Array as="points">
              <mxPoint x="-351" y="480" />
              <mxPoint x="-283" y="480" />
            </Array>
          </mxGeometry>
        </mxCell>
        <mxCell id="Lt6OHq9H0NEp2cN9ZZlA-11" value="Product (CAD/Mock)" style="rounded=0;whiteSpace=wrap;html=1;container=0;" vertex="1" parent="1">
          <mxGeometry x="-416" y="425" width="130" height="30" as="geometry" />
        </mxCell>
        <mxCell id="Lt6OHq9H0NEp2cN9ZZlA-15" value="Schedules" style="rounded=0;whiteSpace=wrap;html=1;container=0;" vertex="1" parent="1">
          <mxGeometry x="-987" y="495" width="80" height="30" as="geometry" />
        </mxCell>
        <mxCell id="Lt6OHq9H0NEp2cN9ZZlA-44" style="edgeStyle=orthogonalEdgeStyle;rounded=0;orthogonalLoop=1;jettySize=auto;html=1;exitX=0.5;exitY=1;exitDx=0;exitDy=0;entryX=0.5;entryY=0;entryDx=0;entryDy=0;" edge="1" parent="1" source="Lt6OHq9H0NEp2cN9ZZlA-5" target="Lt6OHq9H0NEp2cN9ZZlA-16">
          <mxGeometry relative="1" as="geometry">
            <mxPoint x="-861" y="440" as="sourcePoint" />
          </mxGeometry>
        </mxCell>
        <mxCell id="Lt6OHq9H0NEp2cN9ZZlA-16" value="Crew" style="rounded=0;whiteSpace=wrap;html=1;container=0;" vertex="1" parent="1">
          <mxGeometry x="-892" y="495" width="50" height="30" as="geometry" />
        </mxCell>
        <mxCell id="Lt6OHq9H0NEp2cN9ZZlA-17" value="GTB" style="rounded=0;whiteSpace=wrap;html=1;container=0;" vertex="1" parent="1">
          <mxGeometry x="-826" y="495" width="50" height="30" as="geometry" />
        </mxCell>
        <mxCell id="Lt6OHq9H0NEp2cN9ZZlA-18" value="Schedules" style="rounded=0;whiteSpace=wrap;html=1;container=0;" vertex="1" parent="1">
          <mxGeometry x="-908" y="565" width="80" height="30" as="geometry" />
        </mxCell>
        <mxCell id="Lt6OHq9H0NEp2cN9ZZlA-19" value="Crew" style="rounded=0;whiteSpace=wrap;html=1;container=0;" vertex="1" parent="1">
          <mxGeometry x="-816" y="565" width="50" height="30" as="geometry" />
        </mxCell>
        <mxCell id="Lt6OHq9H0NEp2cN9ZZlA-20" value="GTB" style="rounded=0;whiteSpace=wrap;html=1;container=0;" vertex="1" parent="1">
          <mxGeometry x="-756" y="565" width="50" height="30" as="geometry" />
        </mxCell>
        <mxCell id="Lt6OHq9H0NEp2cN9ZZlA-30" value="Schedules" style="rounded=0;whiteSpace=wrap;html=1;container=0;" vertex="1" parent="1">
          <mxGeometry x="-614.5" y="565" width="80" height="30" as="geometry" />
        </mxCell>
        <mxCell id="Lt6OHq9H0NEp2cN9ZZlA-31" value="Crew" style="rounded=0;whiteSpace=wrap;html=1;container=0;" vertex="1" parent="1">
          <mxGeometry x="-526" y="565" width="50" height="30" as="geometry" />
        </mxCell>
        <mxCell id="Lt6OHq9H0NEp2cN9ZZlA-32" value="GTB" style="rounded=0;whiteSpace=wrap;html=1;container=0;" vertex="1" parent="1">
          <mxGeometry x="-457.5" y="565" width="50" height="30" as="geometry" />
        </mxCell>
        <mxCell id="Lt6OHq9H0NEp2cN9ZZlA-33" value="Schedules" style="rounded=0;whiteSpace=wrap;html=1;container=0;" vertex="1" parent="1">
          <mxGeometry x="-466" y="495" width="80" height="30" as="geometry" />
        </mxCell>
        <mxCell id="Lt6OHq9H0NEp2cN9ZZlA-34" value="Crew" style="rounded=0;whiteSpace=wrap;html=1;container=0;" vertex="1" parent="1">
          <mxGeometry x="-376" y="495" width="50" height="30" as="geometry" />
        </mxCell>
        <mxCell id="Lt6OHq9H0NEp2cN9ZZlA-35" value="GTB" style="rounded=0;whiteSpace=wrap;html=1;container=0;" vertex="1" parent="1">
          <mxGeometry x="-308" y="495" width="50" height="30" as="geometry" />
        </mxCell>
        <mxCell id="Lt6OHq9H0NEp2cN9ZZlA-63" value="api-np-dev.org.com" style="text;html=1;align=center;verticalAlign=middle;whiteSpace=wrap;rounded=0;container=0;" vertex="1" parent="1">
          <mxGeometry x="-466" y="150" width="130" height="30" as="geometry" />
        </mxCell>
        <mxCell id="Lt6OHq9H0NEp2cN9ZZlA-64" value="api-np-dev.org.com/cad/dev/schedule" style="text;html=1;align=center;verticalAlign=middle;whiteSpace=wrap;rounded=0;container=0;" vertex="1" parent="1">
          <mxGeometry x="-1086" y="350" width="220" height="30" as="geometry" />
        </mxCell>
        <mxCell id="Lt6OHq9H0NEp2cN9ZZlA-65" value="api-np-dev.org.com/cad/dev/crew" style="text;html=1;align=center;verticalAlign=middle;whiteSpace=wrap;rounded=0;container=0;" vertex="1" parent="1">
          <mxGeometry x="-1087" y="376" width="200" height="30" as="geometry" />
        </mxCell>
        <mxCell id="Lt6OHq9H0NEp2cN9ZZlA-66" value="api-np-dev.org.com/cad/dev/gtb" style="text;html=1;align=center;verticalAlign=middle;whiteSpace=wrap;rounded=0;container=0;" vertex="1" parent="1">
          <mxGeometry x="-1085" y="400" width="190" height="30" as="geometry" />
        </mxCell>
        <mxCell id="Lt6OHq9H0NEp2cN9ZZlA-70" value="api-np-dev.org.com/cad/trial/schedule" style="text;html=1;align=center;verticalAlign=middle;whiteSpace=wrap;rounded=0;container=0;" vertex="1" parent="1">
          <mxGeometry x="-610.5" y="610" width="220" height="30" as="geometry" />
        </mxCell>
        <mxCell id="Lt6OHq9H0NEp2cN9ZZlA-71" value="api-np-dev.org.com/cad/trial/crew" style="text;html=1;align=center;verticalAlign=middle;whiteSpace=wrap;rounded=0;container=0;" vertex="1" parent="1">
          <mxGeometry x="-611.5" y="636" width="200" height="30" as="geometry" />
        </mxCell>
        <mxCell id="Lt6OHq9H0NEp2cN9ZZlA-72" value="api-np-dev.org.com/cad/trial/gtb" style="text;html=1;align=center;verticalAlign=middle;whiteSpace=wrap;rounded=0;container=0;" vertex="1" parent="1">
          <mxGeometry x="-609.5" y="660" width="190" height="30" as="geometry" />
        </mxCell>
      </root>
    </mxGraphModel>
  </diagram>
</mxfile>
